<svg width="8" height="12" viewBox="0 0 8 12" fill="none" xmlns="http://www.w3.org/2000/svg">
    <path d="M4.93934 0.93934C5.52513 0.353553 6.47487 0.353553 7.06066 0.93934C7.64645 1.52513 7.64645 2.47487 7.06066 3.06066L4.93934 0.93934ZM2 6L0.93934 7.06066C0.353553 6.47487 0.353553 5.52513 0.93934 4.93934L2 6ZM7.06066 8.93934C7.64645 9.52513 7.64645 10.4749 7.06066 11.0607C6.47487 11.6464 5.52513 11.6464 4.93934 11.0607L7.06066 8.93934ZM7.06066 3.06066L3.06066 7.06066L0.93934 4.93934L4.93934 0.93934L7.06066 3.06066ZM3.06066 4.93934L7.06066 8.93934L4.93934 11.0607L0.93934 7.06066L3.06066 4.93934Z" fill="#0066B3"/>
</svg>
